<?xml version="1.0" encoding="UTF-8" standalone="no"?>
<svg
   xmlns:dc="http://purl.org/dc/elements/1.1/"
   xmlns:cc="http://creativecommons.org/ns#"
   xmlns:rdf="http://www.w3.org/1999/02/22-rdf-syntax-ns#"
   xmlns:svg="http://www.w3.org/2000/svg"
   xmlns="http://www.w3.org/2000/svg"
   viewBox="600 300 690.6667 1290.6667"
   height="1890.6667"
   width="1890.6667"
   xml:space="preserve"
   id="svg2"
   version="1.1"><metadata
     id="metadata8"><rdf:RDF><cc:Work
         rdf:about=""><dc:format>image/svg+xml</dc:format><dc:type
           rdf:resource="http://purl.org/dc/dcmitype/StillImage" /></cc:Work></rdf:RDF></metadata><defs
     id="defs6" /><g
     transform="matrix(1.3333333,0,0,-1.3333333,0,1890.6667)"
     id="g10"><g
       transform="scale(0.1)"
       id="g12"><path
         id="path16"
         style="fill:#4892cf;fill-opacity:1;fill-rule:evenodd;stroke:none"
         d="m 6454.71,10343.7 c -309.89,-151.2 -642.43,-342.3 -870,-754.03 -428.85,-775.92 43.74,-1558.14 567.54,-1801.03 -123.8,361.12 -429.82,826.77 242.63,1314.58 366.89,266.15 951.44,310.21 1184.16,648.15 213.27,309.73 292.29,679.63 222.08,983.03 -186.26,804.7 -921.12,645.1 -1522.44,930 164.77,-595.1 786.22,-545.1 783.91,-845.2 -1.38,-178.2 -423.85,-385.8 -607.88,-475.5 z M 5757.72,7362.93 c -582.47,-335.45 -1072.34,-1062.8 -620,-1614.18 257.84,-314.27 755.85,-460.69 1128.44,-622.54 -80.62,196.77 -159.51,583.79 -103.01,728 769.29,-576.96 863.12,-939 472.52,-1784.41 -288.08,-623.48 -637.9,-1260.21 224.51,-1560.94 -295.38,652.27 524.86,827.97 957.9,1141.88 1207.74,875.46 1511.42,1929.09 1357.64,2768.43 -386.07,2107.06 -2387.02,1537.49 -3418,943.76 z M 8142.98,9894.5 c 162.35,-125.54 333.45,-279.88 420.24,-576.59 163.55,-559.18 -193.27,-1056.57 -521.43,-1183.38 110.32,236.54 336.97,530.83 1.91,911.9 -88.1,100.18 -210.88,169.02 -325.41,241.06 50.55,33.91 97.69,75.27 139.46,127.37 112.6,140.44 204.05,320.07 249.71,507.33 13,-10.26 25.01,-19.56 35.52,-27.69" /></g></g></svg>