<?xml version="1.0" encoding="utf-8"?>
<!-- Generator: Adobe Illustrator 26.0.0, SVG Export Plug-In . SVG Version: 6.00 Build 0)  -->
<svg version="1.1" xmlns="http://www.w3.org/2000/svg" xmlns:xlink="http://www.w3.org/1999/xlink" x="0px" y="0px"
	 viewBox="0 0 585.7 61.8" style="enable-background:new 0 0 585.7 61.8;" xml:space="preserve">
<style type="text/css">
	.st0{fill:#FFFFFF;}
	.st1{fill:#606061;}
	.st2{fill:#BA1F40;}
	.st3{fill:#BB0E3D;}
	.st4{fill:#606060;stroke:#606060;stroke-width:0.125;stroke-miterlimit:10;}
</style>
<g id="Layer_1">
	<rect x="-11.5" y="-116.4" class="st0" width="659.5" height="278.1"/>
	<g>
		<g>
			<path class="st1" d="M78.4,30.3l-15-27H9.1C6,3.3,3.4,5.9,3.4,9.1v42.4c0,3.2,2.6,5.8,5.8,5.8h54.2L78.4,30.3z"/>
			<path class="st2" d="M76.9,6.1c-1.1-1.7-3-2.8-5-2.8h-4.5l15.2,27l-15.2,27h4.5c2.1,0,4-1.1,5-2.8l13.5-24.2L76.9,6.1z"/>
		</g>
		<g>
			<rect x="35.4" y="18.3" class="st0" width="4" height="24"/>
			<polygon class="st0" points="27.4,18.3 27.4,35.9 16.4,18.3 12.4,18.3 12.4,42.3 16.4,42.3 16.4,24.7 27.4,42.3 31.4,42.3 
				31.4,18.3 			"/>
			<polygon class="st0" points="58.4,18.3 58.4,28.3 47.4,28.3 47.4,18.3 43.4,18.3 43.4,42.3 47.4,42.3 47.4,32.3 58.4,32.3 
				58.4,42.3 62.4,42.3 62.4,18.3 			"/>
		</g>
	</g>
	<g>
		<g>
			<path class="st3" d="M111.2,3.3h2.5v11.2h-2.5l-5.3-7v7h-2.5V3.3h2.3l5.5,7.2V3.3z"/>
			<path class="st3" d="M124.4,14.5l-1-2.4h-4.7l-1,2.4H115l4.8-11.2h2.4l4.8,11.2H124.4z M121.1,6.6l-1.4,3.2h2.8L121.1,6.6z"/>
			<path class="st3" d="M132.3,5.5v9h-2.5v-9h-3.2V3.3h8.8v2.2H132.3z"/>
			<path class="st3" d="M137.3,3.3h2.5v11.2h-2.5V3.3z"/>
			<path class="st3" d="M152,12.9c-1.1,1.1-2.5,1.7-4.2,1.7s-3-0.6-4.2-1.7c-1.1-1.1-1.7-2.5-1.7-4.1c0-1.6,0.6-3,1.7-4.1
				c1.1-1.1,2.5-1.7,4.2-1.7s3,0.6,4.2,1.7c1.1,1.1,1.7,2.5,1.7,4.1C153.7,10.5,153.1,11.8,152,12.9z M151.1,8.8c0-1-0.3-1.8-1-2.6
				c-0.6-0.7-1.4-1.1-2.4-1.1s-1.7,0.4-2.4,1.1s-1,1.6-1,2.6c0,1,0.3,1.8,1,2.5c0.6,0.7,1.4,1,2.4,1s1.7-0.3,2.4-1
				C150.8,10.7,151.1,9.8,151.1,8.8z"/>
			<path class="st3" d="M163.6,3.3h2.5v11.2h-2.5l-5.3-7v7h-2.5V3.3h2.3l5.5,7.2V3.3z"/>
			<path class="st3" d="M176.8,14.5l-1-2.4h-4.7l-1,2.4h-2.7l4.8-11.2h2.4l4.8,11.2H176.8z M173.4,6.6L172,9.9h2.8L173.4,6.6z"/>
			<path class="st3" d="M180.8,14.5V3.3h2.5v9h4.8v2.2H180.8z"/>
			<path class="st3" d="M199.2,12.3c1.2,0,2.2-0.5,3-1.5l1.6,1.6c-1.3,1.4-2.8,2.1-4.5,2.1s-3.1-0.5-4.3-1.6
				c-1.1-1.1-1.7-2.5-1.7-4.1c0-1.7,0.6-3,1.7-4.2c1.1-1.1,2.5-1.7,4.2-1.7c1.8,0,3.4,0.7,4.6,2.1l-1.6,1.8c-0.8-1-1.8-1.5-2.9-1.5
				c-0.9,0-1.7,0.3-2.4,0.9c-0.7,0.6-1,1.4-1,2.5s0.3,1.9,0.9,2.5C197.5,12,198.3,12.3,199.2,12.3z"/>
			<path class="st3" d="M213.7,14.5l-1-2.4h-4.7l-1,2.4h-2.7l4.8-11.2h2.4l4.8,11.2H213.7z M210.3,6.6l-1.4,3.2h2.8L210.3,6.6z"/>
			<path class="st3" d="M225.4,3.3h2.5v11.2h-2.5l-5.3-7v7h-2.5V3.3h2.3l5.5,7.2V3.3z"/>
			<path class="st3" d="M235.8,12.3c1.2,0,2.2-0.5,3-1.5l1.6,1.6c-1.3,1.4-2.8,2.1-4.5,2.1s-3.1-0.5-4.3-1.6
				c-1.1-1.1-1.7-2.5-1.7-4.1c0-1.7,0.6-3,1.7-4.2c1.1-1.1,2.5-1.7,4.2-1.7c1.8,0,3.4,0.7,4.6,2.1l-1.6,1.8c-0.8-1-1.8-1.5-2.9-1.5
				c-0.9,0-1.7,0.3-2.4,0.9c-0.7,0.6-1,1.4-1,2.5s0.3,1.9,0.9,2.5C234.2,12,234.9,12.3,235.8,12.3z"/>
			<path class="st3" d="M250.5,3.3v2.2h-5.6v2.3h5V10h-5v2.3h5.7v2.2h-8.2V3.3H250.5z"/>
			<path class="st3" d="M261.9,7c0,1.8-0.7,2.9-2.1,3.5l2.8,4h-3.1l-2.5-3.6h-1.7v3.6h-2.5V3.3h4.2c1.7,0,3,0.3,3.7,0.9
				S261.9,5.7,261.9,7z M258.9,8.3c0.3-0.3,0.5-0.7,0.5-1.3s-0.2-1-0.5-1.2s-0.9-0.3-1.7-0.3h-1.9v3.3h1.8
				C258,8.8,258.6,8.6,258.9,8.3z"/>
			<path class="st3" d="M268.7,3.3h2.5v11.2h-2.5V3.3z"/>
			<path class="st3" d="M281.8,3.3h2.5v11.2h-2.5l-5.3-7v7H274V3.3h2.3l5.5,7.2V3.3z"/>
			<path class="st3" d="M289.7,5.5c-0.2,0.2-0.4,0.5-0.4,0.8s0.1,0.6,0.4,0.8c0.3,0.2,1,0.4,2,0.7s1.9,0.7,2.5,1.2
				c0.6,0.5,0.9,1.3,0.9,2.3c0,1-0.4,1.8-1.1,2.4s-1.7,0.9-3,0.9c-1.8,0-3.4-0.7-4.8-2l1.5-1.8c1.2,1.1,2.3,1.6,3.3,1.6
				c0.5,0,0.8-0.1,1.1-0.3c0.3-0.2,0.4-0.5,0.4-0.8s-0.1-0.6-0.4-0.8s-0.8-0.4-1.6-0.6c-1.3-0.3-2.3-0.7-2.9-1.2s-0.9-1.3-0.9-2.3
				s0.4-1.9,1.1-2.5c0.8-0.6,1.7-0.9,2.9-0.9c0.7,0,1.5,0.1,2.2,0.4c0.7,0.3,1.4,0.6,2,1.1l-1.3,1.8c-1-0.7-2-1.1-3-1.1
				C290.2,5.2,289.9,5.3,289.7,5.5z"/>
			<path class="st3" d="M301.9,5.5v9h-2.5v-9h-3.2V3.3h8.8v2.2H301.9z"/>
			<path class="st3" d="M306.9,3.3h2.5v11.2h-2.5V3.3z"/>
			<path class="st3" d="M316.9,5.5v9h-2.5v-9h-3.2V3.3h8.8v2.2H316.9z"/>
			<path class="st3" d="M324.8,11.6c0.4,0.5,1,0.8,1.7,0.8s1.3-0.3,1.7-0.8c0.4-0.5,0.6-1.2,0.6-2.1V3.3h2.5v6.3
				c0,1.6-0.4,2.9-1.3,3.7c-0.9,0.9-2,1.3-3.4,1.3c-1.4,0-2.5-0.4-3.4-1.3s-1.4-2.1-1.4-3.7V3.3h2.5v6.2
				C324.2,10.4,324.4,11.1,324.8,11.6z"/>
			<path class="st3" d="M338.6,5.5v9h-2.5v-9h-3.2V3.3h8.8v2.2H338.6z"/>
			<path class="st3" d="M351.7,3.3v2.2h-5.6v2.3h5V10h-5v2.3h5.7v2.2h-8.2V3.3H351.7z"/>
		</g>
	</g>
	<g>
		<path class="st4" d="M103.6,22.4h6.7c1.6,0,3,0.3,4.2,0.9c1.2,0.6,2.2,1.5,2.9,2.6c0.7,1.1,1,2.4,1,3.9c0,1.5-0.3,2.8-1,3.9
			c-0.7,1.1-1.6,2-2.9,2.6c-1.2,0.6-2.6,0.9-4.2,0.9h-6.7V22.4z M110.1,34.3c1.5,0,2.6-0.4,3.5-1.2c0.9-0.8,1.3-1.9,1.3-3.3
			c0-1.4-0.4-2.5-1.3-3.3s-2-1.2-3.5-1.2H107v9.1H110.1z"/>
		<path class="st4" d="M120.9,23.7c-0.4-0.3-0.6-0.8-0.6-1.3s0.2-1,0.6-1.3c0.4-0.3,0.9-0.5,1.5-0.5s1.1,0.2,1.5,0.5
			s0.6,0.8,0.6,1.3c0,0.5-0.2,1-0.6,1.4c-0.4,0.4-0.9,0.5-1.5,0.5S121.2,24.1,120.9,23.7z M120.7,25.8h3.3v11.3h-3.3V25.8z"/>
		<path class="st4" d="M138.2,25.8l-4.8,11.3H130l-4.7-11.3h3.4l3.1,7.7l3.2-7.7H138.2z"/>
		<path class="st4" d="M139.6,23.7c-0.4-0.3-0.6-0.8-0.6-1.3s0.2-1,0.6-1.3c0.4-0.3,0.9-0.5,1.5-0.5s1.1,0.2,1.5,0.5
			s0.6,0.8,0.6,1.3c0,0.5-0.2,1-0.6,1.4c-0.4,0.4-0.9,0.5-1.5,0.5S140,24.1,139.6,23.7z M139.4,25.8h3.3v11.3h-3.3V25.8z"/>
		<path class="st4" d="M146.7,36.9c-0.9-0.2-1.6-0.5-2.1-0.9l1.1-2.4c0.5,0.3,1.1,0.6,1.8,0.8c0.7,0.2,1.4,0.3,2.1,0.3
			c1.4,0,2.1-0.3,2.1-1c0-0.3-0.2-0.6-0.6-0.7s-1-0.3-1.7-0.4c-0.9-0.1-1.7-0.3-2.3-0.5s-1.1-0.5-1.6-1s-0.7-1.1-0.7-2
			c0-0.7,0.2-1.3,0.6-1.9c0.4-0.6,1-1,1.8-1.3c0.8-0.3,1.7-0.5,2.8-0.5c0.8,0,1.6,0.1,2.4,0.3c0.8,0.2,1.4,0.4,2,0.7l-1.1,2.3
			c-1-0.6-2.1-0.8-3.3-0.8c-0.7,0-1.2,0.1-1.6,0.3c-0.4,0.2-0.5,0.4-0.5,0.8c0,0.4,0.2,0.6,0.6,0.7s1,0.3,1.8,0.4
			c0.9,0.2,1.7,0.3,2.3,0.5s1.1,0.5,1.5,1c0.4,0.5,0.7,1.1,0.7,1.9c0,0.7-0.2,1.3-0.6,1.9c-0.4,0.5-1,1-1.8,1.3
			c-0.8,0.3-1.8,0.5-2.9,0.5C148.6,37.3,147.6,37.2,146.7,36.9z"/>
		<path class="st4" d="M156.9,23.7c-0.4-0.3-0.6-0.8-0.6-1.3s0.2-1,0.6-1.3c0.4-0.3,0.9-0.5,1.5-0.5s1.1,0.2,1.5,0.5
			s0.6,0.8,0.6,1.3c0,0.5-0.2,1-0.6,1.4c-0.4,0.4-0.9,0.5-1.5,0.5S157.3,24.1,156.9,23.7z M156.8,25.8h3.3v11.3h-3.3V25.8z"/>
		<path class="st4" d="M165.2,36.5c-0.9-0.5-1.7-1.2-2.2-2.1c-0.5-0.9-0.8-1.9-0.8-3s0.3-2.1,0.8-3c0.5-0.9,1.3-1.6,2.2-2.1
			s2-0.7,3.2-0.7c1.2,0,2.3,0.2,3.2,0.7c0.9,0.5,1.7,1.2,2.2,2.1c0.5,0.9,0.8,1.9,0.8,3s-0.3,2.1-0.8,3c-0.5,0.9-1.3,1.6-2.2,2.1
			c-0.9,0.5-2,0.7-3.2,0.7C167.2,37.3,166.2,37,165.2,36.5z M170.5,33.7c0.5-0.6,0.8-1.3,0.8-2.3s-0.3-1.7-0.8-2.3
			c-0.5-0.6-1.2-0.9-2.1-0.9c-0.8,0-1.5,0.3-2.1,0.9s-0.8,1.3-0.8,2.3s0.3,1.7,0.8,2.3c0.5,0.6,1.2,0.9,2.1,0.9
			C169.3,34.6,169.9,34.3,170.5,33.7z"/>
		<path class="st4" d="M187,26.9c0.9,0.8,1.3,2.1,1.3,3.7v6.5H185v-6c0-0.9-0.2-1.6-0.6-2c-0.4-0.4-1-0.7-1.7-0.7
			c-0.8,0-1.5,0.3-2,0.8c-0.5,0.5-0.7,1.3-0.7,2.3v5.6h-3.3V25.8h3.1v1.3c0.4-0.5,1-0.8,1.6-1.1c0.6-0.3,1.4-0.4,2.1-0.4
			C185,25.6,186.1,26.1,187,26.9z"/>
		<path class="st4" d="M199.2,36.5c-0.9-0.5-1.7-1.2-2.2-2.1c-0.5-0.9-0.8-1.9-0.8-3s0.3-2.1,0.8-3c0.5-0.9,1.3-1.6,2.2-2.1
			s2-0.7,3.2-0.7c1.2,0,2.3,0.2,3.2,0.7c0.9,0.5,1.7,1.2,2.2,2.1c0.5,0.9,0.8,1.9,0.8,3s-0.3,2.1-0.8,3c-0.5,0.9-1.3,1.6-2.2,2.1
			c-0.9,0.5-2,0.7-3.2,0.7C201.2,37.3,200.2,37,199.2,36.5z M204.5,33.7c0.5-0.6,0.8-1.3,0.8-2.3s-0.3-1.7-0.8-2.3
			c-0.5-0.6-1.2-0.9-2.1-0.9c-0.8,0-1.5,0.3-2.1,0.9s-0.8,1.3-0.8,2.3s0.3,1.7,0.8,2.3c0.5,0.6,1.2,0.9,2.1,0.9
			C203.3,34.6,204,34.3,204.5,33.7z"/>
		<path class="st4" d="M214.3,26.1h2.9v2.5h-2.8v8.5h-3.3v-8.5h-1.7v-2.5h1.7v-0.5c0-1.3,0.4-2.3,1.1-3.1c0.8-0.8,1.8-1.1,3.2-1.1
			c0.5,0,1,0.1,1.4,0.2c0.4,0.1,0.8,0.3,1.1,0.5l-0.9,2.4c-0.4-0.3-0.8-0.4-1.3-0.4c-1,0-1.5,0.5-1.5,1.6V26.1z"/>
		<path class="st4" d="M227.9,36.4c-1.2-0.7-2.2-1.6-2.9-2.7s-1-2.5-1-3.9c0-1.5,0.3-2.8,1-3.9s1.6-2.1,2.9-2.7c1.2-0.7,2.6-1,4.1-1
			c1.3,0,2.4,0.2,3.5,0.7c1,0.4,1.9,1.1,2.6,1.9l-2.2,2c-1-1.1-2.2-1.7-3.7-1.7c-0.9,0-1.7,0.2-2.4,0.6c-0.7,0.4-1.3,1-1.7,1.7
			c-0.4,0.7-0.6,1.5-0.6,2.4c0,0.9,0.2,1.7,0.6,2.4c0.4,0.7,1,1.3,1.7,1.7c0.7,0.4,1.5,0.6,2.4,0.6c1.5,0,2.7-0.6,3.7-1.7l2.2,2
			c-0.7,0.9-1.6,1.5-2.6,2c-1,0.4-2.2,0.7-3.5,0.7C230.5,37.4,229.1,37,227.9,36.4z"/>
		<path class="st4" d="M248.5,26.9c0.9,0.8,1.4,2.1,1.4,3.8v6.4h-3.1v-1.4c-0.6,1-1.8,1.6-3.4,1.6c-0.9,0-1.6-0.1-2.3-0.4
			s-1.1-0.7-1.5-1.2c-0.3-0.5-0.5-1.1-0.5-1.8c0-1.1,0.4-1.9,1.2-2.5c0.8-0.6,2-0.9,3.7-0.9h2.6c0-0.7-0.2-1.3-0.7-1.6
			c-0.4-0.4-1.1-0.6-2-0.6c-0.6,0-1.2,0.1-1.8,0.3c-0.6,0.2-1.1,0.4-1.5,0.8l-1.2-2.3c0.6-0.4,1.4-0.8,2.2-1
			c0.9-0.2,1.7-0.4,2.7-0.4C246.2,25.6,247.6,26.1,248.5,26.9z M245.7,34.7c0.4-0.3,0.7-0.6,0.9-1.1v-1.2h-2.2c-1.3,0-2,0.4-2,1.3
			c0,0.4,0.2,0.8,0.5,1c0.3,0.2,0.8,0.4,1.4,0.4C244.8,35.1,245.3,34.9,245.7,34.7z"/>
		<path class="st4" d="M263.1,26.9c0.9,0.8,1.3,2.1,1.3,3.7v6.5h-3.3v-6c0-0.9-0.2-1.6-0.6-2c-0.4-0.4-1-0.7-1.7-0.7
			c-0.8,0-1.5,0.3-2,0.8c-0.5,0.5-0.7,1.3-0.7,2.3v5.6h-3.3V25.8h3.1v1.3c0.4-0.5,1-0.8,1.6-1.1c0.6-0.3,1.4-0.4,2.1-0.4
			C261.1,25.6,262.2,26.1,263.1,26.9z"/>
		<path class="st4" d="M269.6,36.5c-1-0.5-1.7-1.2-2.2-2.1s-0.8-1.9-0.8-3s0.3-2.1,0.8-3s1.3-1.6,2.2-2.1s2-0.7,3.2-0.7
			c1.2,0,2.2,0.2,3.1,0.7c0.9,0.5,1.5,1.2,1.9,2.1l-2.5,1.4c-0.6-1-1.4-1.6-2.5-1.6c-0.9,0-1.6,0.3-2.1,0.8
			c-0.6,0.6-0.8,1.3-0.8,2.3s0.3,1.7,0.8,2.3c0.6,0.6,1.3,0.8,2.1,0.8c1.1,0,2-0.5,2.5-1.6l2.5,1.4c-0.4,0.9-1.1,1.6-1.9,2.1
			c-0.9,0.5-1.9,0.8-3.1,0.8C271.7,37.3,270.6,37,269.6,36.5z"/>
		<path class="st4" d="M290.6,32.4h-8.5c0.2,0.7,0.5,1.3,1.1,1.7c0.6,0.4,1.3,0.6,2.1,0.6c0.6,0,1.1-0.1,1.6-0.3s0.9-0.5,1.3-0.8
			l1.7,1.9c-1.1,1.2-2.6,1.8-4.7,1.8c-1.3,0-2.4-0.2-3.4-0.7c-1-0.5-1.7-1.2-2.3-2.1s-0.8-1.9-0.8-3c0-1.1,0.3-2.1,0.8-3
			c0.5-0.9,1.2-1.6,2.2-2.1s1.9-0.7,3.1-0.7c1.1,0,2.1,0.2,3,0.7c0.9,0.5,1.6,1.2,2.1,2c0.5,0.9,0.8,1.9,0.8,3.1
			C290.7,31.5,290.7,31.8,290.6,32.4z M282.9,28.7c-0.5,0.4-0.8,1-0.9,1.7h5.6c-0.1-0.7-0.4-1.3-0.9-1.7s-1.1-0.6-1.8-0.6
			C284.1,28.1,283.5,28.3,282.9,28.7z"/>
		<path class="st4" d="M297.5,26.1c0.7-0.3,1.4-0.4,2.3-0.4v3c-0.4,0-0.6,0-0.7,0c-0.9,0-1.7,0.3-2.2,0.8c-0.5,0.5-0.8,1.3-0.8,2.4
			v5.3h-3.3V25.8h3.1v1.5C296.3,26.8,296.8,26.3,297.5,26.1z"/>
		<path class="st4" d="M319.3,34.4v2.7h-11.4V22.4H319v2.7h-7.7v3.2h6.8V31h-6.8v3.4H319.3z"/>
		<path class="st4" d="M331.2,26.4c0.9,0.5,1.5,1.2,2,2c0.5,0.9,0.7,1.9,0.7,3.1s-0.2,2.2-0.7,3.1s-1.2,1.6-2,2
			c-0.9,0.5-1.8,0.7-2.9,0.7c-1.4,0-2.6-0.5-3.4-1.4v5.3h-3.3V25.8h3.1v1.3c0.8-1,2-1.5,3.5-1.5C329.4,25.6,330.4,25.9,331.2,26.4z
			 M329.9,33.7c0.5-0.6,0.8-1.3,0.8-2.3s-0.3-1.7-0.8-2.3s-1.2-0.9-2.1-0.9s-1.5,0.3-2.1,0.9s-0.8,1.3-0.8,2.3s0.3,1.7,0.8,2.3
			c0.5,0.6,1.2,0.9,2.1,0.9S329.3,34.3,329.9,33.7z"/>
		<path class="st4" d="M336.3,23.7c-0.4-0.3-0.6-0.8-0.6-1.3s0.2-1,0.6-1.3s0.9-0.5,1.5-0.5c0.6,0,1.1,0.2,1.5,0.5s0.6,0.8,0.6,1.3
			c0,0.5-0.2,1-0.6,1.4c-0.4,0.4-0.9,0.5-1.5,0.5C337.2,24.2,336.7,24.1,336.3,23.7z M336.1,25.8h3.3v11.3h-3.3V25.8z"/>
		<path class="st4" d="M353.9,21.5v15.6h-3.1v-1.3c-0.8,1-2,1.5-3.5,1.5c-1.1,0-2-0.2-2.9-0.7c-0.9-0.5-1.5-1.2-2-2
			c-0.5-0.9-0.7-1.9-0.7-3.1s0.2-2.2,0.7-3.1c0.5-0.9,1.2-1.6,2-2s1.8-0.7,2.9-0.7c1.4,0,2.6,0.5,3.4,1.4v-5.5H353.9z M349.9,33.7
			c0.5-0.6,0.8-1.3,0.8-2.3s-0.3-1.7-0.8-2.3s-1.2-0.9-2.1-0.9c-0.8,0-1.5,0.3-2.1,0.9c-0.5,0.6-0.8,1.3-0.8,2.3s0.3,1.7,0.8,2.3
			c0.5,0.6,1.2,0.9,2.1,0.9C348.6,34.6,349.3,34.3,349.9,33.7z"/>
		<path class="st4" d="M367.8,32.4h-8.5c0.2,0.7,0.5,1.3,1.1,1.7c0.6,0.4,1.3,0.6,2.1,0.6c0.6,0,1.1-0.1,1.6-0.3s0.9-0.5,1.3-0.8
			l1.7,1.9c-1.1,1.2-2.6,1.8-4.7,1.8c-1.3,0-2.4-0.2-3.4-0.7c-1-0.5-1.7-1.2-2.3-2.1s-0.8-1.9-0.8-3c0-1.1,0.3-2.1,0.8-3
			c0.5-0.9,1.2-1.6,2.2-2.1s1.9-0.7,3.1-0.7c1.1,0,2.1,0.2,3,0.7c0.9,0.5,1.6,1.2,2.1,2c0.5,0.9,0.8,1.9,0.8,3.1
			C367.9,31.5,367.9,31.8,367.8,32.4z M360.2,28.7c-0.5,0.4-0.8,1-0.9,1.7h5.6c-0.1-0.7-0.4-1.3-0.9-1.7s-1.1-0.6-1.8-0.6
			C361.3,28.1,360.7,28.3,360.2,28.7z"/>
		<path class="st4" d="M387.9,26.9c0.8,0.8,1.2,2.1,1.2,3.7v6.5h-3.3v-6c0-0.9-0.2-1.6-0.6-2s-0.9-0.7-1.6-0.7
			c-0.8,0-1.4,0.2-1.8,0.7c-0.4,0.5-0.7,1.2-0.7,2.2v5.7h-3.3v-6c0-1.8-0.7-2.7-2.1-2.7c-0.8,0-1.4,0.2-1.8,0.7s-0.7,1.2-0.7,2.2
			v5.7H370V25.8h3.1v1.3c0.4-0.5,0.9-0.8,1.5-1.1s1.3-0.4,2-0.4c0.8,0,1.5,0.2,2.2,0.5c0.6,0.3,1.2,0.8,1.6,1.4c0.5-0.6,1-1,1.8-1.4
			c0.7-0.3,1.5-0.5,2.3-0.5C385.9,25.6,387,26.1,387.9,26.9z"/>
		<path class="st4" d="M392.2,23.7c-0.4-0.3-0.6-0.8-0.6-1.3s0.2-1,0.6-1.3s0.9-0.5,1.5-0.5c0.6,0,1.1,0.2,1.5,0.5s0.6,0.8,0.6,1.3
			c0,0.5-0.2,1-0.6,1.4c-0.4,0.4-0.9,0.5-1.5,0.5C393,24.2,392.5,24.1,392.2,23.7z M392,25.8h3.3v11.3H392V25.8z"/>
		<path class="st4" d="M400.4,36.5c-0.9-0.5-1.7-1.2-2.2-2.1s-0.8-1.9-0.8-3s0.3-2.1,0.8-3s1.3-1.6,2.2-2.1s2-0.7,3.2-0.7
			c1.2,0,2.3,0.2,3.2,0.7c0.9,0.5,1.7,1.2,2.2,2.1c0.5,0.9,0.8,1.9,0.8,3s-0.3,2.1-0.8,3c-0.5,0.9-1.3,1.6-2.2,2.1
			c-0.9,0.5-2,0.7-3.2,0.7C402.4,37.3,401.4,37,400.4,36.5z M405.7,33.7c0.5-0.6,0.8-1.3,0.8-2.3s-0.3-1.7-0.8-2.3s-1.2-0.9-2.1-0.9
			s-1.5,0.3-2.1,0.9c-0.5,0.6-0.8,1.3-0.8,2.3s0.3,1.7,0.8,2.3c0.5,0.6,1.2,0.9,2.1,0.9S405.2,34.3,405.7,33.7z"/>
		<path class="st4" d="M411.9,21.5h3.3v15.6h-3.3V21.5z"/>
		<path class="st4" d="M420.4,36.5c-0.9-0.5-1.7-1.2-2.2-2.1s-0.8-1.9-0.8-3s0.3-2.1,0.8-3s1.3-1.6,2.2-2.1s2-0.7,3.2-0.7
			c1.2,0,2.3,0.2,3.2,0.7c0.9,0.5,1.7,1.2,2.2,2.1c0.5,0.9,0.8,1.9,0.8,3s-0.3,2.1-0.8,3c-0.5,0.9-1.3,1.6-2.2,2.1
			c-0.9,0.5-2,0.7-3.2,0.7C422.4,37.3,421.3,37,420.4,36.5z M425.7,33.7c0.5-0.6,0.8-1.3,0.8-2.3s-0.3-1.7-0.8-2.3s-1.2-0.9-2.1-0.9
			s-1.5,0.3-2.1,0.9c-0.5,0.6-0.8,1.3-0.8,2.3s0.3,1.7,0.8,2.3c0.5,0.6,1.2,0.9,2.1,0.9S425.1,34.3,425.7,33.7z"/>
		<path class="st4" d="M443.6,25.8v9.4c0,2.1-0.5,3.6-1.6,4.6s-2.7,1.5-4.7,1.5c-1.1,0-2.1-0.1-3.1-0.4c-1-0.3-1.8-0.7-2.4-1.2
			l1.3-2.4c0.5,0.4,1.1,0.7,1.8,0.9c0.7,0.2,1.5,0.3,2.2,0.3c1.1,0,2-0.3,2.5-0.8c0.5-0.5,0.8-1.3,0.8-2.3v-0.5
			c-0.9,0.9-2,1.4-3.6,1.4c-1,0-2-0.2-2.8-0.7s-1.5-1.1-2-1.9s-0.8-1.8-0.8-2.9s0.3-2,0.8-2.9s1.2-1.5,2-1.9
			c0.9-0.5,1.8-0.7,2.8-0.7c1.6,0,2.9,0.5,3.7,1.6v-1.4H443.6z M439.5,33.1c0.6-0.5,0.8-1.2,0.8-2s-0.3-1.5-0.8-2
			c-0.6-0.5-1.3-0.8-2.1-0.8s-1.6,0.3-2.1,0.8c-0.6,0.5-0.8,1.2-0.8,2s0.3,1.5,0.8,2c0.6,0.5,1.3,0.8,2.1,0.8S438.9,33.6,439.5,33.1
			z"/>
		<path class="st4" d="M457.8,25.8l-5.1,12c-0.5,1.3-1.2,2.2-1.9,2.8c-0.8,0.5-1.7,0.8-2.8,0.8c-0.6,0-1.2-0.1-1.7-0.3
			c-0.6-0.2-1-0.4-1.4-0.8L446,38c0.3,0.2,0.5,0.4,0.9,0.5c0.3,0.1,0.7,0.2,1,0.2c0.4,0,0.8-0.1,1.1-0.3c0.3-0.2,0.5-0.6,0.8-1.1
			l0-0.1l-4.9-11.4h3.4l3.2,7.7l3.2-7.7H457.8z"/>
		<path class="st4" d="M476.4,37.4l-1.8-1.6c-1.4,1.1-3,1.6-4.9,1.6c-1.1,0-2-0.2-2.9-0.5c-0.9-0.3-1.5-0.8-2-1.4s-0.7-1.3-0.7-2.1
			c0-0.9,0.3-1.7,0.8-2.4c0.5-0.7,1.3-1.4,2.5-2c-0.5-0.5-0.9-1.1-1.2-1.6s-0.4-1-0.4-1.5c0-0.7,0.2-1.3,0.6-1.9s0.9-1,1.6-1.3
			c0.7-0.3,1.5-0.5,2.4-0.5c1.3,0,2.3,0.3,3.1,0.9c0.8,0.6,1.2,1.4,1.2,2.5c0,0.8-0.2,1.4-0.7,2c-0.5,0.6-1.2,1.2-2.2,1.7l2.7,2.5
			c0.3-0.7,0.6-1.4,0.7-2.3l2.6,0.8c-0.3,1.3-0.7,2.4-1.3,3.3l1.7,1.6L476.4,37.4z M472.7,33.9l-3.5-3.3c-0.7,0.4-1.1,0.7-1.4,1.1
			s-0.4,0.8-0.4,1.2c0,0.5,0.2,1,0.7,1.3c0.5,0.3,1.1,0.5,1.9,0.5C471,34.8,471.9,34.5,472.7,33.9z M469.3,24.8
			c-0.3,0.3-0.4,0.6-0.4,1c0,0.3,0.1,0.6,0.2,0.8c0.2,0.3,0.5,0.6,0.9,1c0.7-0.4,1.2-0.7,1.5-1s0.4-0.6,0.4-1c0-0.4-0.1-0.7-0.4-0.9
			s-0.6-0.3-1.1-0.3C470,24.4,469.6,24.6,469.3,24.8z"/>
		<path class="st4" d="M496.2,29.5h3.1v6c-0.8,0.6-1.7,1.1-2.8,1.4c-1,0.3-2.1,0.5-3.2,0.5c-1.5,0-2.9-0.3-4.1-1
			c-1.2-0.7-2.2-1.6-2.9-2.7s-1-2.5-1-3.9c0-1.5,0.3-2.8,1-3.9s1.7-2.1,2.9-2.7c1.2-0.7,2.6-1,4.2-1c1.3,0,2.5,0.2,3.5,0.7
			c1,0.4,1.9,1.1,2.6,1.9l-2.2,2c-1-1.1-2.3-1.7-3.8-1.7c-0.9,0-1.8,0.2-2.5,0.6c-0.7,0.4-1.3,0.9-1.7,1.7c-0.4,0.7-0.6,1.5-0.6,2.5
			c0,0.9,0.2,1.7,0.6,2.4s1,1.3,1.7,1.7c0.7,0.4,1.5,0.6,2.5,0.6c1,0,1.9-0.2,2.6-0.6V29.5z"/>
		<path class="st4" d="M513.1,32.4h-8.5c0.2,0.7,0.5,1.3,1.1,1.7c0.6,0.4,1.3,0.6,2.1,0.6c0.6,0,1.1-0.1,1.6-0.3s0.9-0.5,1.3-0.8
			l1.7,1.9c-1.1,1.2-2.6,1.8-4.7,1.8c-1.3,0-2.4-0.2-3.4-0.7c-1-0.5-1.7-1.2-2.3-2.1s-0.8-1.9-0.8-3c0-1.1,0.3-2.1,0.8-3
			c0.5-0.9,1.2-1.6,2.2-2.1s1.9-0.7,3.1-0.7c1.1,0,2.1,0.2,3,0.7c0.9,0.5,1.6,1.2,2.1,2c0.5,0.9,0.8,1.9,0.8,3.1
			C513.2,31.5,513.2,31.8,513.1,32.4z M505.5,28.7c-0.5,0.4-0.8,1-0.9,1.7h5.6c-0.1-0.7-0.4-1.3-0.9-1.7s-1.1-0.6-1.8-0.6
			C506.6,28.1,506,28.3,505.5,28.7z"/>
		<path class="st4" d="M525.6,26.9c0.9,0.8,1.3,2.1,1.3,3.7v6.5h-3.3v-6c0-0.9-0.2-1.6-0.6-2c-0.4-0.4-1-0.7-1.7-0.7
			c-0.8,0-1.5,0.3-2,0.8c-0.5,0.5-0.7,1.3-0.7,2.3v5.6h-3.3V25.8h3.1v1.3c0.4-0.5,1-0.8,1.6-1.1c0.6-0.3,1.4-0.4,2.1-0.4
			C523.6,25.6,524.7,26.1,525.6,26.9z"/>
		<path class="st4" d="M540.9,32.4h-8.5c0.2,0.7,0.5,1.3,1.1,1.7c0.6,0.4,1.3,0.6,2.1,0.6c0.6,0,1.1-0.1,1.6-0.3s0.9-0.5,1.3-0.8
			l1.7,1.9c-1.1,1.2-2.6,1.8-4.7,1.8c-1.3,0-2.4-0.2-3.4-0.7c-1-0.5-1.7-1.2-2.3-2.1s-0.8-1.9-0.8-3c0-1.1,0.3-2.1,0.8-3
			c0.5-0.9,1.2-1.6,2.2-2.1s1.9-0.7,3.1-0.7c1.1,0,2.1,0.2,3,0.7c0.9,0.5,1.6,1.2,2.1,2c0.5,0.9,0.8,1.9,0.8,3.1
			C541,31.5,541,31.8,540.9,32.4z M533.2,28.7c-0.5,0.4-0.8,1-0.9,1.7h5.6c-0.1-0.7-0.4-1.3-0.9-1.7s-1.1-0.6-1.8-0.6
			C534.4,28.1,533.7,28.3,533.2,28.7z"/>
		<path class="st4" d="M550.4,36.6c-0.3,0.2-0.7,0.4-1.2,0.5s-1,0.2-1.5,0.2c-1.3,0-2.4-0.3-3.1-1c-0.7-0.7-1.1-1.7-1.1-3v-4.6h-1.7
			v-2.5h1.7v-2.8h3.3v2.8h2.8v2.5h-2.8v4.6c0,0.5,0.1,0.8,0.4,1.1c0.2,0.3,0.6,0.4,1,0.4c0.5,0,1-0.1,1.3-0.4L550.4,36.6z"/>
		<path class="st4" d="M552.3,23.7c-0.4-0.3-0.6-0.8-0.6-1.3s0.2-1,0.6-1.3s0.9-0.5,1.5-0.5c0.6,0,1.1,0.2,1.5,0.5s0.6,0.8,0.6,1.3
			c0,0.5-0.2,1-0.6,1.4c-0.4,0.4-0.9,0.5-1.5,0.5C553.2,24.2,552.7,24.1,552.3,23.7z M552.2,25.8h3.3v11.3h-3.3V25.8z"/>
		<path class="st4" d="M560.6,36.5c-1-0.5-1.7-1.2-2.2-2.1s-0.8-1.9-0.8-3s0.3-2.1,0.8-3s1.3-1.6,2.2-2.1s2-0.7,3.2-0.7
			c1.2,0,2.2,0.2,3.1,0.7c0.9,0.5,1.5,1.2,1.9,2.1l-2.5,1.4c-0.6-1-1.4-1.6-2.5-1.6c-0.9,0-1.6,0.3-2.1,0.8
			c-0.6,0.6-0.8,1.3-0.8,2.3s0.3,1.7,0.8,2.3c0.6,0.6,1.3,0.8,2.1,0.8c1.1,0,2-0.5,2.5-1.6l2.5,1.4c-0.4,0.9-1.1,1.6-1.9,2.1
			c-0.9,0.5-1.9,0.8-3.1,0.8C562.7,37.3,561.6,37,560.6,36.5z"/>
		<path class="st4" d="M571.8,36.9c-0.9-0.2-1.6-0.5-2.1-0.9l1.1-2.4c0.5,0.3,1.1,0.6,1.8,0.8c0.7,0.2,1.4,0.3,2.1,0.3
			c1.4,0,2.1-0.3,2.1-1c0-0.3-0.2-0.6-0.6-0.7s-1-0.3-1.7-0.4c-0.9-0.1-1.7-0.3-2.3-0.5c-0.6-0.2-1.1-0.5-1.6-1s-0.7-1.1-0.7-2
			c0-0.7,0.2-1.3,0.6-1.9c0.4-0.6,1-1,1.8-1.3c0.8-0.3,1.7-0.5,2.8-0.5c0.8,0,1.6,0.1,2.4,0.3c0.8,0.2,1.4,0.4,2,0.7l-1.1,2.3
			c-1-0.6-2.1-0.8-3.3-0.8c-0.7,0-1.2,0.1-1.6,0.3c-0.3,0.2-0.5,0.4-0.5,0.8c0,0.4,0.2,0.6,0.6,0.7s1,0.3,1.8,0.4
			c0.9,0.2,1.7,0.3,2.3,0.5s1.1,0.5,1.5,1c0.4,0.5,0.7,1.1,0.7,1.9c0,0.7-0.2,1.3-0.6,1.9c-0.4,0.5-1,1-1.8,1.3
			c-0.8,0.3-1.8,0.5-2.9,0.5C573.6,37.3,572.7,37.2,571.8,36.9z"/>
		<path class="st4" d="M103.6,43.4h3.4v14.7h-3.4V43.4z"/>
		<path class="st4" d="M113.4,57.4c-1.2-0.7-2.2-1.6-2.9-2.7s-1-2.5-1-3.9c0-1.5,0.3-2.8,1-3.9s1.6-2.1,2.9-2.7c1.2-0.7,2.6-1,4.1-1
			c1.3,0,2.4,0.2,3.5,0.7c1,0.4,1.9,1.1,2.6,1.9l-2.2,2c-1-1.1-2.2-1.7-3.7-1.7c-0.9,0-1.7,0.2-2.4,0.6c-0.7,0.4-1.3,1-1.7,1.7
			c-0.4,0.7-0.6,1.5-0.6,2.4c0,0.9,0.2,1.7,0.6,2.4c0.4,0.7,1,1.3,1.7,1.7c0.7,0.4,1.5,0.6,2.4,0.6c1.5,0,2.7-0.6,3.7-1.7l2.2,2
			c-0.7,0.9-1.6,1.5-2.6,2c-1,0.4-2.2,0.7-3.5,0.7C116,58.4,114.6,58,113.4,57.4z"/>
		<path class="st4" d="M125.8,43.4h6.7c1.6,0,3,0.3,4.2,0.9c1.2,0.6,2.2,1.5,2.9,2.6c0.7,1.1,1,2.4,1,3.9c0,1.5-0.3,2.8-1,3.9
			c-0.7,1.1-1.6,2-2.9,2.6c-1.2,0.6-2.6,0.9-4.2,0.9h-6.7V43.4z M132.3,55.3c1.5,0,2.6-0.4,3.5-1.2c0.9-0.8,1.3-1.9,1.3-3.3
			c0-1.4-0.4-2.5-1.3-3.3s-2-1.2-3.5-1.2h-3.1v9.1H132.3z"/>
		<path class="st4" d="M158.9,50.5h3.1v6c-0.8,0.6-1.7,1.1-2.8,1.4c-1.1,0.3-2.1,0.5-3.2,0.5c-1.5,0-2.9-0.3-4.1-1
			c-1.2-0.7-2.2-1.6-2.9-2.7s-1-2.5-1-3.9c0-1.5,0.3-2.8,1-3.9s1.7-2.1,2.9-2.7c1.2-0.7,2.6-1,4.2-1c1.3,0,2.5,0.2,3.5,0.7
			c1,0.4,1.9,1.1,2.6,1.9l-2.2,2c-1-1.1-2.3-1.7-3.8-1.7c-0.9,0-1.8,0.2-2.5,0.6c-0.7,0.4-1.3,0.9-1.7,1.7c-0.4,0.7-0.6,1.5-0.6,2.5
			c0,0.9,0.2,1.7,0.6,2.4c0.4,0.7,1,1.3,1.7,1.7c0.7,0.4,1.5,0.6,2.5,0.6c1,0,1.9-0.2,2.6-0.6V50.5z"/>
		<path class="st4" d="M175.8,53.4h-8.5c0.2,0.7,0.5,1.3,1.1,1.7c0.6,0.4,1.3,0.6,2.1,0.6c0.6,0,1.1-0.1,1.6-0.3
			c0.5-0.2,0.9-0.5,1.3-0.8l1.7,1.9c-1.1,1.2-2.6,1.8-4.7,1.8c-1.3,0-2.4-0.2-3.4-0.7c-1-0.5-1.7-1.2-2.3-2.1
			c-0.5-0.9-0.8-1.9-0.8-3c0-1.1,0.3-2.1,0.8-3s1.2-1.6,2.2-2.1c0.9-0.5,1.9-0.7,3.1-0.7c1.1,0,2.1,0.2,3,0.7c0.9,0.5,1.6,1.2,2.1,2
			c0.5,0.9,0.8,1.9,0.8,3.1C175.9,52.5,175.9,52.8,175.8,53.4z M168.2,49.7c-0.5,0.4-0.8,1-0.9,1.7h5.6c-0.1-0.7-0.4-1.3-0.9-1.7
			s-1.1-0.6-1.8-0.6C169.3,49.1,168.7,49.3,168.2,49.7z"/>
		<path class="st4" d="M188.3,47.9c0.9,0.8,1.3,2.1,1.3,3.7v6.5h-3.3v-6c0-0.9-0.2-1.6-0.6-2c-0.4-0.4-1-0.7-1.7-0.7
			c-0.8,0-1.5,0.3-2,0.8c-0.5,0.5-0.7,1.3-0.7,2.3v5.6H178V46.8h3.1v1.3c0.4-0.5,1-0.8,1.6-1.1c0.6-0.3,1.4-0.4,2.1-0.4
			C186.3,46.6,187.4,47.1,188.3,47.9z"/>
		<path class="st4" d="M192.6,44.7c-0.4-0.3-0.6-0.8-0.6-1.3s0.2-1,0.6-1.3c0.4-0.3,0.9-0.5,1.5-0.5s1.1,0.2,1.5,0.5
			s0.6,0.8,0.6,1.3c0,0.5-0.2,1-0.6,1.4c-0.4,0.4-0.9,0.5-1.5,0.5S193,45.1,192.6,44.7z M192.5,46.8h3.3v11.3h-3.3V46.8z"/>
		<path class="st4" d="M209.7,53.4h-8.5c0.2,0.7,0.5,1.3,1.1,1.7c0.6,0.4,1.3,0.6,2.1,0.6c0.6,0,1.1-0.1,1.6-0.3
			c0.5-0.2,0.9-0.5,1.3-0.8l1.7,1.9c-1.1,1.2-2.6,1.8-4.7,1.8c-1.3,0-2.4-0.2-3.4-0.7c-1-0.5-1.7-1.2-2.3-2.1
			c-0.5-0.9-0.8-1.9-0.8-3c0-1.1,0.3-2.1,0.8-3s1.2-1.6,2.2-2.1c0.9-0.5,1.9-0.7,3.1-0.7c1.1,0,2.1,0.2,3,0.7c0.9,0.5,1.6,1.2,2.1,2
			c0.5,0.9,0.8,1.9,0.8,3.1C209.8,52.5,209.8,52.8,209.7,53.4z M202.1,49.7c-0.5,0.4-0.8,1-0.9,1.7h5.6c-0.1-0.7-0.4-1.3-0.9-1.7
			s-1.1-0.6-1.8-0.6C203.2,49.1,202.6,49.3,202.1,49.7z"/>
	</g>
</g>
<g id="Layer_2">
</g>
</svg>
